{"title":"Time.Out.of.Mind.2014.WEBRip.480p.x264.AAC-VYTO [P2PDL]","uid":12222661,"size":429454098,"categoryP":"video","categoryS":"movies","magnet":"?xt=urn:btih:91e1fc8f135527b5c7fdd0ed1813b83e14ca8f17&amp;dn=Time.Out.of.Mind.2014.WEBRip.480p.x264.AAC-VYTO+%5BP2PDL%5D&amp;tr=udp%3A%2F%2Ftracker.openbittorrent.com%3A80&amp;tr=udp%3A%2F%2Fopen.demonii.com%3A1337&amp;tr=udp%3A%2F%2Ftracker.coppersurfer.tk%3A6969&amp;tr=udp%3A%2F%2Fexodus.desync.com%3A6969","seeders":2,"leechers":0,"uploader":"ValidusVyto","files":7,"time":1439391779,"description":"____    ____ ____    ____ .___________.  ______   \n     /   /      /   / |           | /  __    \n    /   /      /   /  `---|  |----`|  |  |  | \n        /     _    _/       |  |     |  |  |  | \n       /        |  |         |  |     |  `--'  | \n    __/         |__|         |__|      ______/  \n                                                  \nPresenting Small Encodes with quality for years!\n                                                                                                   \n                                                                                                   \n\nTime.Out.of.Mind.2014.WEBRip.480p.x264.AAC-VYTO\n\n\nGenre: Drama &lt;a href=&quot;\nhttp://www.imdb.com/title/tt3505712/&quot; rel=&quot;nofollow&quot; target=&quot;_NEW&quot;&gt;\nhttp://www.imdb.com/title/tt3505712/&lt;/a&gt;\n\n\nGeneral\nFormat                         : MPEG-4\nFile size                      : 403 MiB\nDuration                       : 2h 1mn\nOverall bit rate               : 464 Kbps\n\nVideo\nFormat                         : AVC\nBit rate                       : 429 Kbps\nWidth                          : 720 pixels\nHeight                         : 304 pixels\nDisplay aspect ratio           : 2.35:1\nFrame rate mode                : Constant\nFrame rate                     : 23.976 fps\nBit depth                      : 8 bits\nStream size                    : 373 MiB (92%)\nWriting library                : x264 core 148 r2579\n\nAudio\nFormat                         : AAC\nBit rate mode                  : Variable\nBit rate                       : 31.9 Kbps\nChannel(s)                     : 2 channels\nChannel positions              : Front: L R\nSampling rate                  : 48.0 KHz\nStream size                    : 27.7 MiB (7%)\n\nSubtitle                       : Yes\t\n\nScreenshots:\n &lt;a href=&quot;\nhttp://ititli.com/Hh&quot; rel=&quot;nofollow&quot; target=&quot;_NEW&quot;&gt;\nhttp://ititli.com/Hh&lt;/a&gt; &lt;a href=&quot;\nhttp://ititli.com/Hs&quot; rel=&quot;nofollow&quot; target=&quot;_NEW&quot;&gt;\nhttp://ititli.com/Hs&lt;/a&gt; &lt;a href=&quot;\nhttp://ititli.com/HY&quot; rel=&quot;nofollow&quot; target=&quot;_NEW&quot;&gt;\nhttp://ititli.com/HY&lt;/a&gt; &lt;a href=&quot;\nhttp://ititli.com/H4&quot; rel=&quot;nofollow&quot; target=&quot;_NEW&quot;&gt;\nhttp://ititli.com/H4&lt;/a&gt; &lt;a href=&quot;\nhttp://ititli.com/H0&quot; rel=&quot;nofollow&quot; target=&quot;_NEW&quot;&gt;\nhttp://ititli.com/H0&lt;/a&gt; &lt;a href=&quot;\nhttp://ititli.com/HV&quot; rel=&quot;nofollow&quot; target=&quot;_NEW&quot;&gt;\nhttp://ititli.com/HV&lt;/a&gt; &lt;a href=&quot;\nhttp://ititli.com/Ht&quot; rel=&quot;nofollow&quot; target=&quot;_NEW&quot;&gt;\nhttp://ititli.com/Ht&lt;/a&gt; &lt;a href=&quot;\nhttp://ititli.com/HL&quot; rel=&quot;nofollow&quot; target=&quot;_NEW&quot;&gt;\nhttp://ititli.com/HL&lt;/a&gt; &lt;a href=&quot;\nhttp://ititli.com/Hd&quot; rel=&quot;nofollow&quot; target=&quot;_NEW&quot;&gt;\nhttp://ititli.com/Hd&lt;/a&gt;\n\n----------------------------------------------------------------------------------------------------\n\n\nEncoder Notes: Looking For Early Access To Anything You Can Provide DVDScr, R5, DVDR, BluRay, Direct\nAudio, Music Releases and Seedboxes. If You Got anything to offer please contact us.\n\nSupport us by donating BC - 1FgwdzPsd1y25Gea8wP1qni35uGCtmkRCD","torrent":{"xt":"urn:btih:91e1fc8f135527b5c7fdd0ed1813b83e14ca8f17","amp;dn":"Time.Out.of.Mind.2014.WEBRip.480p.x264.AAC-VYTO+%5BP2PDL%5D","amp;tr":["udp%3A%2F%2Ftracker.openbittorrent.com%3A80","udp%3A%2F%2Fopen.demonii.com%3A1337","udp%3A%2F%2Ftracker.coppersurfer.tk%3A6969","udp%3A%2F%2Fexodus.desync.com%3A6969"],"infoHash":"91e1fc8f135527b5c7fdd0ed1813b83e14ca8f17","infoHashBuffer":{"type":"Buffer","data":[145,225,252,143,19,85,39,181,199,253,208,237,24,19,184,62,20,202,143,23]},"announce":[],"urlList":[]}}